<?xml version="1.0" standalone="no"?>
<!DOCTYPE svg PUBLIC "-//W3C//DTD SVG 20010904//EN"
 "http://www.w3.org/TR/2001/REC-SVG-20010904/DTD/svg10.dtd">
<svg version="1.0" xmlns="http://www.w3.org/2000/svg"
 width="778.000000pt" height="778.000000pt" viewBox="0 0 778.000000 778.000000"
 preserveAspectRatio="xMidYMid meet">

<g transform="translate(0.000000,778.000000) scale(0.100000,-0.100000)"
fill="#000000" stroke="none">
<path d="M5590 7549 c-25 -5 -53 -18 -62 -29 -35 -43 -37 -193 -3 -265 26 -54
57 -70 135 -70 89 1 150 29 174 80 24 51 18 149 -14 199 -42 69 -137 104 -230
85z m138 -75 c39 -26 62 -74 62 -131 0 -43 -4 -55 -26 -72 -29 -23 -98 -36
-141 -27 -40 9 -56 40 -61 124 -5 81 7 118 42 126 33 7 99 -4 124 -20z"/>
<path d="M5290 7061 c-39 -9 -87 -39 -94 -56 -13 -34 -6 -98 14 -130 26 -42
55 -61 105 -69 89 -14 144 51 124 146 -10 46 -59 108 -84 108 -8 0 -19 2 -27
4 -7 2 -24 1 -38 -3z m77 -90 c30 -44 29 -76 -1 -96 -31 -20 -70 -11 -96 22
-31 39 -26 75 13 95 43 23 57 19 84 -21z"/>
<path d="M3030 7040 c-253 -7 -339 -22 -567 -95 -18 -6 -16 -42 3 -49 9 -3 49
-6 90 -6 57 0 76 4 80 15 8 19 59 33 154 41 41 4 83 12 92 19 9 6 36 10 60 8
24 -1 153 -7 288 -12 271 -10 331 -21 340 -62 4 -16 14 -25 30 -27 110 -14
314 -116 411 -206 38 -35 102 -83 141 -107 40 -24 97 -63 125 -86 33 -27 63
-43 79 -43 19 0 39 -13 65 -41 25 -27 44 -39 54 -35 48 18 16 70 -100 158 -44
34 -130 103 -190 153 -104 85 -206 145 -325 191 -25 10 -74 35 -110 55 -36 21
-103 50 -150 65 -47 14 -103 35 -125 45 -54 24 -157 28 -445 19z"/>
<path d="M2236 6904 c-182 -50 -392 -192 -348 -236 20 -20 96 6 192 66 143 90
182 107 264 115 41 4 78 10 82 13 3 4 3 19 0 33 -5 21 -12 25 -39 24 -17 -1
-39 1 -47 4 -8 3 -55 -5 -104 -19z"/>
<path d="M4950 6717 c-23 -12 -25 -18 -23 -74 2 -79 23 -120 76 -144 51 -22
69 -23 106 -5 55 29 67 108 25 170 -41 59 -124 84 -184 53z m125 -80 c35 -35
38 -64 10 -87 -27 -22 -87 10 -91 48 -1 10 -5 29 -9 45 -7 25 -5 27 25 27 23
0 41 -9 65 -33z"/>
<path d="M6539 6667 c-37 -31 -59 -79 -59 -127 0 -23 -5 -50 -11 -61 -10 -19
-11 -18 -32 12 -31 46 -63 54 -120 30 -51 -22 -64 -47 -53 -104 10 -52 41 -80
85 -75 20 3 43 8 52 12 15 7 15 3 1 -49 l-15 -55 -22 20 c-11 11 -34 22 -50
25 -91 17 -163 -120 -101 -191 28 -34 84 -38 116 -9 11 10 22 16 24 14 2 -2
-1 -35 -8 -73 -11 -67 -11 -68 -30 -48 -35 40 -122 41 -164 1 -17 -15 -22 -31
-22 -70 0 -61 11 -84 50 -104 37 -19 70 -19 98 1 13 9 25 14 27 12 2 -2 -4
-34 -13 -72 -17 -67 -18 -68 -36 -47 -34 38 -135 24 -168 -23 -9 -13 -1 -90
14 -129 11 -27 53 -57 81 -57 8 0 26 9 41 21 31 24 30 31 10 -104 -19 -123
-13 -160 38 -235 69 -101 73 -118 71 -327 -1 -165 -4 -191 -18 -202 -14 -9
-18 -32 -20 -110 -2 -54 -8 -120 -14 -147 -7 -27 -11 -99 -10 -160 3 -219 -50
-878 -83 -1032 -12 -57 -3 -85 33 -104 35 -19 49 4 49 79 0 90 10 141 26 141
7 0 31 21 51 48 123 155 211 252 228 252 7 0 6 -61 -1 -98 -4 -20 -14 -32 -29
-36 -31 -8 -176 -152 -208 -207 -28 -48 -28 -73 1 -84 12 -5 26 5 47 32 17 21
63 72 102 113 l73 75 0 -41 c0 -47 -21 -73 -130 -163 -75 -62 -81 -70 -74 -93
4 -13 -6 -19 -53 -28 -32 -6 -78 -17 -103 -25 -25 -7 -99 -25 -165 -39 -140
-30 -282 -74 -450 -140 -114 -45 -191 -76 -473 -196 -67 -29 -124 -51 -125
-49 -2 2 -21 31 -42 64 -22 33 -49 78 -61 100 -13 25 -29 41 -42 43 -24 4 -28
12 -12 28 12 12 3 44 -11 44 -5 0 -9 10 -9 23 0 16 -23 39 -86 87 -147 111
-200 154 -238 191 -36 36 -88 55 -118 44 -7 -3 -26 7 -42 24 l-27 29 43 20
c25 12 54 19 69 16 21 -5 37 4 83 47 80 73 100 115 101 210 0 85 -14 116 -45
99 -16 -8 -19 -22 -18 -84 0 -62 -4 -80 -26 -114 -36 -58 -111 -118 -142 -114
-13 2 -47 -4 -74 -13 -80 -26 -97 3 -29 50 83 58 122 131 118 221 l-3 59 75
26 c125 44 199 87 277 163 41 39 88 96 107 126 67 112 92 252 61 353 -26 85
-191 290 -256 317 -28 12 -83 10 -125 -4 -17 -6 -26 2 -50 43 -16 28 -32 51
-35 51 -13 0 -82 151 -124 270 -45 129 -63 154 -93 134 -34 -22 -23 -71 67
-289 29 -70 76 -248 84 -321 3 -21 12 -68 21 -104 31 -125 34 -465 4 -495 -5
-5 -9 23 -9 75 -1 105 -22 222 -49 275 -12 21 -21 54 -21 72 0 39 -23 56 -57
40 -22 -10 -23 -16 -25 -126 -1 -64 -2 -129 -1 -146 3 -98 -41 -268 -88 -336
-43 -62 -45 -113 -5 -107 27 4 115 175 137 268 16 63 16 64 27 37 7 -16 12
-55 12 -87 0 -57 11 -82 41 -92 25 -8 -12 -74 -58 -102 -24 -16 -55 -42 -68
-60 -27 -36 -75 -174 -75 -218 0 -24 -6 -32 -35 -44 -19 -7 -56 -14 -82 -14
-39 0 -51 4 -69 27 -19 24 -24 26 -38 14 -27 -23 -20 -69 16 -102 39 -35 78
-49 165 -57 63 -7 67 -9 74 -36 4 -15 15 -36 24 -46 15 -17 13 -20 -37 -47
-154 -83 -397 -196 -433 -201 -22 -2 -61 -15 -87 -28 -43 -22 -78 -31 -78 -20
0 2 -11 48 -25 102 -33 130 -53 174 -77 174 -11 0 -18 4 -16 8 1 4 46 48 98
96 96 90 113 118 73 124 -15 2 -43 -16 -95 -66 -40 -37 -102 -92 -138 -121
-36 -30 -78 -66 -94 -82 -33 -34 -16 -33 -276 -14 -381 28 -600 68 -788 144
-124 49 -160 108 -192 301 -19 116 -49 221 -85 290 -8 16 -15 38 -15 49 0 11
-6 24 -13 28 -16 10 -67 97 -67 115 0 13 49 87 77 116 7 7 13 18 13 25 0 12
50 67 61 67 4 0 5 -35 2 -78 -15 -219 64 -350 222 -368 41 -5 62 -1 117 23 92
40 117 63 119 110 7 177 4 229 -19 285 -13 31 -32 64 -43 74 -32 29 -24 53 20
60 45 7 58 26 35 49 -12 12 -41 15 -134 15 -74 0 -121 4 -126 11 -6 10 -30 7
-68 -7 -14 -5 -14 -3 0 24 8 17 21 33 29 36 19 7 19 21 -1 41 -10 9 -24 13
-33 10 -9 -4 -21 -9 -27 -12 -13 -5 -26 41 -49 176 l-16 94 27 22 c34 27 29
58 -10 65 -28 5 -30 10 -48 90 -15 66 -20 127 -20 275 -1 236 20 552 39 580
28 41 4 77 -37 55 -29 -16 -40 -43 -50 -128 -5 -42 -24 -153 -41 -247 -30
-161 -32 -185 -35 -445 l-2 -275 -31 -24 c-17 -13 -34 -22 -37 -19 -11 11 -45
206 -55 317 -10 109 1 454 18 588 4 35 2 42 -16 48 -35 11 -58 -10 -65 -61 -3
-26 -6 -120 -6 -210 0 -151 -1 -163 -19 -169 -11 -3 -22 -13 -25 -22 -11 -29
-25 -244 -32 -493 -6 -191 -10 -250 -22 -268 -12 -18 -12 -28 -4 -47 7 -14 16
-25 21 -25 5 0 12 -24 16 -52 4 -29 24 -105 45 -168 21 -63 38 -127 38 -142
-1 -43 27 -75 92 -108 39 -20 68 -43 84 -68 40 -60 39 -62 -40 -66 -81 -4
-166 -26 -242 -64 -49 -25 -54 -26 -63 -9 -15 26 -44 21 -60 -10 -7 -16 -21
-39 -31 -52 -13 -17 -18 -42 -18 -86 0 -87 -20 -134 -99 -239 -82 -109 -160
-225 -193 -286 -55 -103 -108 -251 -108 -305 0 -16 -3 -40 -6 -52 l-6 -23 -17
23 c-41 52 -52 115 -39 212 13 99 57 236 107 335 21 41 58 116 83 165 25 50
53 117 63 150 9 33 23 72 30 86 11 21 12 34 2 65 -13 46 -25 56 -49 43 -12 -7
-18 -21 -18 -47 0 -69 -40 -181 -119 -334 -123 -239 -165 -372 -166 -528 0
-73 4 -93 27 -140 15 -30 54 -81 86 -114 49 -47 64 -57 82 -51 19 6 21 12 16
38 -23 116 -7 241 46 353 25 54 25 54 47 -58 8 -36 24 -73 47 -102 23 -31 34
-55 34 -79 0 -41 23 -66 44 -48 9 7 15 41 18 96 4 80 8 92 63 201 33 63 63
117 67 120 4 3 8 -35 8 -83 0 -61 8 -118 24 -183 13 -52 30 -122 36 -155 14
-75 47 -165 68 -188 8 -10 24 -16 35 -15 14 2 23 -7 36 -38 28 -71 34 -74 128
-74 47 0 111 7 143 15 31 8 74 14 96 12 48 -3 55 17 21 66 -24 36 -31 65 -42
182 l-5 60 37 -75 c21 -42 46 -98 55 -125 9 -28 31 -66 47 -85 30 -34 31 -34
46 -16 13 17 12 24 -10 65 -26 50 -58 143 -70 206 -5 22 -9 155 -10 295 -1
140 -5 280 -10 310 l-8 54 33 -27 c53 -45 158 -88 305 -126 l40 -10 0 -53 c0
-38 -10 -76 -34 -133 -18 -44 -35 -81 -36 -83 -5 -6 -100 99 -122 136 -13 21
-23 53 -23 74 0 32 -4 39 -26 44 -38 10 -45 -4 -34 -69 9 -59 44 -120 95 -167
38 -35 55 -72 55 -118 0 -42 21 -62 45 -42 7 6 36 58 65 115 29 58 56 102 60
100 5 -3 16 -28 25 -56 14 -41 15 -55 5 -79 -16 -38 -7 -60 23 -60 39 0 49 20
71 139 l11 64 29 -43 c39 -59 72 -89 131 -116 56 -26 129 -31 181 -12 46 16
49 33 14 77 -17 21 -33 55 -37 77 l-5 39 61 -60 c33 -33 61 -67 61 -77 0 -9 5
-20 10 -23 6 -4 67 6 136 21 109 24 125 31 130 50 3 12 14 24 25 27 22 6 26
45 5 53 -16 6 -36 55 -36 87 0 11 14 36 30 56 17 20 35 42 41 49 6 7 13 11 16
9 2 -3 16 -45 29 -94 14 -48 28 -97 31 -107 5 -16 3 -18 -12 -12 -15 5 -44
-19 -138 -116 -129 -134 -187 -211 -187 -250 0 -14 7 -45 15 -68 19 -54 20
-50 -13 -50 -36 0 -47 -12 -172 -200 -63 -94 -125 -202 -158 -274 -30 -66 -68
-138 -86 -159 -27 -34 -31 -46 -29 -91 1 -28 13 -84 28 -124 26 -72 26 -74 13
-170 -18 -137 -14 -323 7 -339 35 -25 40 -7 40 140 0 132 2 144 22 171 12 15
25 44 29 65 4 20 9 40 11 44 7 13 32 -12 76 -78 22 -33 76 -97 120 -142 60
-62 77 -86 70 -95 -6 -7 -16 -39 -23 -70 -7 -32 -21 -65 -32 -74 -10 -10 -18
-29 -18 -44 0 -14 -9 -89 -19 -166 -18 -125 -18 -147 -6 -200 12 -51 21 -66
70 -112 64 -59 105 -69 127 -29 9 15 22 22 43 22 l30 0 8 130 c9 146 72 608
87 634 6 11 10 -17 10 -89 1 -236 20 -644 32 -682 17 -59 52 -71 168 -60 99
10 145 31 135 62 -3 10 -1 21 5 25 24 15 -18 389 -61 554 -2 8 22 34 56 60
149 113 285 245 285 277 0 17 -68 138 -109 193 -58 78 -131 221 -131 255 0 13
-17 45 -39 71 -22 26 -47 63 -58 82 l-18 35 45 36 c46 39 140 131 200 198 43
48 598 394 632 394 4 0 9 -69 10 -152 3 -140 5 -153 22 -156 10 -2 22 2 27 10
5 7 9 81 9 164 l0 152 33 25 c34 26 121 77 131 77 3 0 3 -13 0 -30 -8 -35 21
-109 73 -188 20 -29 34 -54 32 -56 -2 -2 -21 -11 -41 -20 -44 -21 -181 -138
-226 -195 -24 -30 -40 -41 -60 -41 -16 0 -32 -8 -39 -19 -19 -30 -128 -249
-158 -316 -60 -135 -153 -439 -179 -587 -8 -46 -22 -117 -30 -158 -9 -47 -11
-81 -5 -92 18 -33 9 -156 -32 -425 -13 -90 -9 -113 20 -113 26 0 30 8 46 93
l14 72 -5 -75 c-3 -41 -16 -147 -30 -235 -14 -88 -29 -214 -34 -281 -5 -66
-12 -128 -16 -138 -7 -18 9 -36 33 -36 16 0 54 83 60 131 3 21 1 51 -5 67 -12
34 19 266 42 310 7 15 23 67 36 117 12 49 25 94 29 100 23 30 30 79 21 157
-11 95 9 208 43 245 14 16 20 35 19 62 -3 63 100 286 211 458 24 37 51 80 60
95 9 15 43 45 74 66 32 22 66 49 76 60 17 18 17 21 2 36 -13 13 -21 14 -38 4
-74 -39 -248 -192 -272 -238 -8 -15 -12 -36 -9 -47 4 -16 -33 -101 -62 -141
-1 -2 -11 2 -23 10 l-20 12 22 26 c13 14 32 50 44 80 56 148 67 171 85 181 14
8 18 17 14 33 -7 28 51 117 133 204 50 54 63 62 84 57 30 -8 55 23 34 44 -15
15 23 47 116 96 37 20 67 43 67 51 0 7 7 14 15 14 8 0 29 9 47 19 36 23 48 19
48 -12 0 -12 7 -31 15 -41 8 -11 15 -29 15 -40 0 -12 12 -52 26 -91 13 -38 33
-97 43 -129 19 -64 42 -89 63 -68 10 10 4 47 -29 180 -23 92 -44 188 -48 213
l-6 46 39 5 c41 6 186 70 197 88 3 5 28 19 55 31 26 11 50 29 53 38 3 12 32
29 78 46 41 16 88 37 105 47 60 35 415 140 429 127 2 -2 -5 -94 -16 -204 -11
-110 -18 -225 -17 -255 5 -102 -14 -404 -39 -620 -16 -140 -26 -289 -28 -425
-4 -229 -24 -395 -70 -575 -44 -175 -98 -287 -201 -422 -74 -98 -154 -220
-148 -229 3 -5 19 -9 35 -9 23 0 42 12 80 52 27 28 49 54 49 58 0 4 9 18 21
31 13 15 18 31 14 46 -4 16 1 26 16 35 11 7 36 39 56 71 21 33 43 57 53 57 10
0 33 24 55 56 20 32 54 73 74 93 71 69 176 167 245 226 118 102 156 141 156
161 0 10 14 -20 30 -68 16 -48 63 -157 105 -243 71 -148 94 -216 110 -327 5
-42 4 -48 -12 -48 -30 0 -95 -73 -91 -101 5 -37 43 -37 74 0 39 47 48 40 40
-34 l-7 -65 36 0 35 0 0 101 c0 109 -26 260 -61 357 -12 31 -48 113 -81 182
-98 204 -127 315 -128 477 0 39 -4 75 -10 78 -13 8 -13 178 0 310 7 65 6 103
0 109 -14 14 -12 99 5 306 9 96 20 265 25 375 6 110 24 333 40 495 17 162 32
318 34 345 2 28 8 88 14 135 6 47 14 128 17 180 17 261 79 867 101 976 8 43
19 117 24 164 5 47 20 157 34 245 28 179 49 414 44 490 l-3 50 49 -3 c70 -3
86 14 86 94 0 75 -14 94 -71 94 -68 0 -79 11 -79 84 l0 64 30 -11 c20 -8 38
-8 57 -1 25 8 29 17 37 67 7 47 5 62 -9 83 -15 23 -22 26 -59 21 -22 -3 -48
-8 -58 -12 -19 -7 -23 4 -33 81 l-6 51 42 7 c62 10 69 19 69 90 0 49 -4 67
-20 84 -24 26 -76 29 -106 7 -28 -21 -31 -19 -43 29 -15 62 -14 66 13 66 40 0
68 31 76 86 14 90 -33 147 -96 114 -28 -16 -24 -20 -53 55 -35 89 -69 145 -89
145 -9 -1 -29 -11 -43 -23z m48 -127 c10 -47 9 -50 -7 -35 -9 8 -22 15 -28 15
-8 0 -10 9 -6 28 15 59 28 57 41 -8z m-207 -89 c0 -11 -8 -27 -17 -36 -16 -16
-17 -16 -30 1 -7 10 -13 21 -13 25 0 6 25 18 58 28 1 1 2 -8 2 -18z m230 -8
c-1 -10 -25 -45 -55 -78 l-54 -59 18 59 c15 49 23 61 42 63 13 2 28 10 32 18
11 19 17 18 17 -3z m146 -67 c-4 -16 -12 -22 -28 -21 -32 2 -32 18 -1 56 27
32 28 32 31 10 2 -13 1 -33 -2 -45z m-106 -112 c0 -8 -7 -14 -15 -14 -35 0
-106 -74 -190 -195 -15 -22 -25 -32 -21 -22 3 10 6 25 6 33 0 8 9 23 20 34 10
10 31 39 46 62 15 24 49 74 77 111 l50 69 14 -32 c7 -18 13 -39 13 -46z m-338
-60 c-5 -31 -24 -64 -38 -64 -21 0 -28 22 -11 35 10 7 17 19 17 27 0 8 3 18 7
22 12 12 28 -1 25 -20z m368 -41 c-1 -10 -21 -31 -46 -46 -24 -16 -68 -57 -97
-92 -28 -35 -55 -64 -59 -64 -12 -2 74 122 120 172 46 48 82 62 82 30z m160
-48 c0 -35 -4 -38 -57 -35 -14 1 -2 45 15 58 28 22 42 14 42 -23z m-117 -133
c21 -112 22 -118 2 -102 -35 29 -116 -41 -246 -210 -158 -206 -198 -291 -139
-298 21 -2 31 7 62 61 32 55 150 223 167 237 3 3 27 30 53 61 25 30 62 66 82
80 19 13 37 31 39 39 2 8 5 -6 8 -32 3 -40 1 -48 -13 -48 -9 0 -27 -15 -39
-32 -13 -18 -41 -51 -63 -74 -56 -56 -207 -229 -248 -284 -52 -71 -68 -98 -68
-118 0 -46 62 -53 74 -9 3 12 34 58 70 102 81 101 288 331 295 328 3 -2 7 -17
9 -34 3 -28 -6 -41 -77 -113 -121 -123 -253 -295 -291 -378 -11 -24 -20 -38
-20 -33 0 6 -21 42 -46 80 l-45 70 5 86 c5 92 13 112 82 210 73 103 132 174
241 288 54 56 73 83 73 104 0 49 -37 34 -117 -45 -40 -40 -73 -68 -73 -61 0
24 178 213 200 213 3 0 14 -40 23 -88z m-459 -48 c8 -20 -19 -64 -37 -64 -17
0 -37 20 -37 37 0 7 9 13 20 13 11 0 20 7 20 15 0 20 26 19 34 -1z m156 -52
c0 -5 -8 -17 -18 -28 -11 -11 -22 -26 -26 -34 -3 -8 -4 -4 -1 10 2 14 5 33 5
43 0 10 8 17 20 17 11 0 20 -4 20 -8z m480 -71 c0 -23 -4 -26 -48 -36 -29 -6
-33 -5 -30 11 3 18 41 44 66 44 6 0 12 -9 12 -19z m-691 -193 c-12 -43 -25
-54 -44 -38 -21 17 -19 37 5 50 11 6 20 18 20 27 0 12 3 13 14 4 11 -9 12 -20
5 -43z m711 -126 c0 -36 -4 -39 -39 -34 -19 3 -31 11 -35 25 -7 29 1 37 40 37
31 0 34 -3 34 -28z m-140 -38 c0 -28 -4 -34 -20 -34 -11 0 -24 -8 -27 -17 -4
-10 -50 -63 -102 -119 -53 -55 -123 -135 -156 -176 -59 -75 -75 -86 -75 -47 0
12 7 19 19 19 14 0 29 18 50 58 58 108 280 370 302 356 5 -3 9 -21 9 -40z m0
-172 c0 -35 -8 -46 -101 -137 -98 -97 -204 -223 -248 -295 l-21 -35 0 31 c0
50 11 93 25 96 7 2 31 30 53 63 39 58 270 313 285 314 4 1 7 -16 7 -37z m-7
-194 c-4 -34 -11 -49 -23 -53 -49 -15 -271 -288 -329 -402 -27 -55 -27 -71 4
-85 14 -6 25 -14 25 -17 -1 -11 -70 -86 -70 -76 0 6 7 73 15 150 8 77 15 141
15 143 0 1 11 0 23 -4 21 -5 27 1 50 49 30 60 125 177 226 278 36 36 67 65 68
65 0 -1 -1 -22 -4 -48z m-5048 -270 l19 -106 -30 -35 c-16 -20 -32 -36 -36
-36 -10 -1 -10 260 -1 365 l7 79 11 -80 c6 -44 20 -128 30 -187z m245 65 c0
-14 -6 -23 -15 -23 -12 0 -15 14 -14 73 l1 72 14 -50 c7 -27 14 -60 14 -72z
m4759 -89 c-12 -76 -25 -141 -30 -142 -15 -6 -39 -59 -39 -86 0 -20 -8 -29
-37 -41 -41 -17 -75 -52 -185 -192 -58 -73 -74 -88 -76 -72 -2 11 3 28 11 37
8 9 41 55 72 102 58 86 142 192 209 264 41 46 46 73 14 86 -20 8 -30 2 -72
-43 -26 -29 -66 -74 -87 -100 -76 -95 -34 -12 60 119 68 94 171 217 178 210 2
-2 -6 -66 -18 -142z m-4729 -71 c29 -174 65 -272 98 -273 25 0 11 -15 -31 -32
-23 -10 -47 -18 -53 -18 -6 0 -16 33 -21 73 -6 39 -19 121 -28 180 -17 113
-16 137 9 137 9 0 18 -21 26 -67z m-105 -65 c11 -114 35 -220 56 -251 17 -24
18 -30 6 -47 -13 -18 -17 -14 -56 66 -23 47 -51 125 -62 172 l-21 86 27 23
c14 13 30 23 34 23 5 0 12 -33 16 -72z m2771 -50 c56 -51 159 -187 180 -236
12 -27 14 -57 11 -112 -11 -146 -118 -303 -266 -389 -69 -41 -158 -77 -166
-69 -3 3 2 25 10 49 38 106 48 182 48 359 0 124 -5 197 -16 249 -13 59 -14 77
-4 83 7 5 17 0 26 -12 19 -29 61 -27 61 3 0 12 -7 31 -15 41 -22 29 -18 43 13
60 44 25 69 19 118 -26z m-2884 -52 c10 -47 34 -105 63 -156 l46 -81 -43 -39
c-24 -21 -44 -34 -46 -29 -6 14 -44 11 -62 -6 -15 -13 -18 -9 -38 48 -12 34
-24 90 -28 124 -6 57 -4 66 22 110 16 26 34 60 41 76 7 15 16 27 20 27 4 0 16
-33 25 -74z m4861 -148 c-4 -32 -15 -54 -43 -83 -55 -58 -260 -347 -260 -366
0 -9 6 -22 14 -28 26 -22 31 -16 165 170 26 37 64 86 84 109 30 35 37 40 39
24 3 -36 -2 -57 -16 -68 -7 -6 -40 -41 -72 -77 -32 -36 -79 -88 -104 -115 -24
-27 -61 -73 -82 -103 l-38 -54 0 60 c0 67 20 326 26 332 2 2 11 -2 19 -9 13
-11 20 -11 40 0 14 7 25 16 25 19 0 16 187 231 200 231 4 0 6 -19 3 -42z m-17
-404 c-6 -54 -10 -59 -89 -139 -94 -94 -165 -183 -196 -243 -26 -51 -26 -68
-2 -81 24 -13 39 -1 80 69 43 73 195 235 187 200 -3 -14 -6 -38 -6 -55 0 -23
-8 -36 -35 -54 -32 -22 -144 -139 -238 -251 -32 -38 -37 -41 -33 -20 3 14 10
102 17 197 11 147 14 169 26 157 24 -24 49 -16 75 24 40 59 205 251 217 252 2
0 1 -25 -3 -56z m-4210 21 c11 -26 -22 -60 -93 -97 -48 -26 -76 -35 -95 -31
-34 6 -34 14 -7 71 26 53 61 71 137 72 38 0 54 -4 58 -15z m1902 -426 c-12
-35 -69 -102 -79 -92 -16 16 24 125 58 159 17 17 18 16 24 -12 3 -16 1 -41 -3
-55z m-2374 -25 c10 -4 16 -18 16 -38 0 -17 9 -64 20 -104 11 -39 20 -76 20
-82 0 -6 -39 -10 -97 -11 -110 0 -218 -16 -310 -47 l-63 -20 0 82 c0 44 4 86
8 91 7 11 101 74 140 94 55 29 224 51 266 35z m-479 -241 c-7 -135 -8 -139
-40 -183 -29 -40 -114 -200 -143 -270 l-10 -25 -13 30 c-7 17 -14 82 -16 145
l-4 115 106 140 c58 77 108 150 111 163 13 50 16 15 9 -115z m3155 -300 c80
-57 145 -108 145 -114 0 -14 -95 -67 -255 -142 -42 -20 -282 -158 -325 -187
-91 -62 -258 -160 -273 -160 -8 0 -45 -28 -82 -62 -37 -35 -86 -75 -110 -89
-39 -24 -45 -25 -69 -13 -22 12 -26 21 -26 58 0 28 -7 52 -18 64 -16 17 -16
23 -6 40 11 17 10 24 -2 39 -9 10 -26 54 -39 97 -12 44 -37 105 -55 135 -51
87 -50 90 25 116 129 45 300 119 560 244 146 71 276 133 290 138 22 10 29 7
60 -24 19 -20 100 -82 180 -140z m1918 121 c-7 -7 -29 -16 -48 -20 l-35 -6 25
18 c14 10 34 27 45 37 18 17 20 17 23 1 2 -9 -2 -22 -10 -30z m-3868 -38 c47
-8 153 -19 235 -25 227 -18 368 -30 369 -33 1 -2 10 -30 22 -64 l20 -61 -88
-20 -89 -20 -50 58 c-57 66 -109 102 -133 93 -10 -4 -22 0 -30 11 -10 15 -16
16 -35 6 -20 -11 -22 -17 -16 -54 6 -37 21 -80 50 -151 8 -18 5 -19 -34 -12
-24 3 -55 13 -70 21 -43 22 -96 87 -116 141 -23 63 -28 68 -59 60 -32 -8 -66
-43 -67 -70 0 -17 -3 -15 -14 9 -19 40 -29 91 -21 110 7 18 18 18 126 1z
m-630 -131 l0 -125 -32 2 c-25 2 -34 -2 -45 -22 -22 -43 -14 -317 12 -382 10
-25 -53 -40 -155 -36 l-84 3 -18 58 c-19 63 -43 223 -54 359 -6 73 -10 87 -26
91 -30 8 -49 -32 -49 -107 -1 -36 -4 -66 -8 -66 -11 0 -51 171 -51 217 l0 40
148 36 c180 45 230 54 305 56 l57 1 0 -125z m4425 55 c-3 -5 -10 -10 -16 -10
-5 0 -9 5 -9 10 0 6 7 10 16 10 8 0 12 -4 9 -10z m-29 -18 c15 -10 30 -57 15
-48 -7 4 -13 -8 -17 -34 -6 -36 -13 -44 -36 -42 -3 1 -9 -5 -12 -13 -3 -9 0
-15 9 -15 8 0 15 -13 17 -32 2 -26 8 -34 27 -36 13 -2 27 2 32 9 14 23 17 6
12 -67 -5 -63 -8 -72 -32 -85 -21 -12 -123 -128 -243 -274 -15 -19 -16 -18
-11 30 5 48 10 55 111 157 58 59 116 109 129 113 18 4 23 12 23 36 0 65 -57
47 -157 -49 l-70 -67 1 87 1 88 55 11 c68 15 80 24 80 60 0 26 -3 29 -32 29
-18 0 -56 -6 -85 -14 -28 -8 -54 -11 -57 -8 -4 3 -16 0 -29 -6 -35 -17 -307
-83 -318 -77 -5 4 -9 1 -9 -4 0 -6 -6 -11 -14 -11 -7 0 -39 -11 -71 -26 -32
-14 -64 -23 -71 -20 -8 3 -14 1 -14 -4 0 -5 -19 -14 -42 -20 -81 -22 -118 -36
-111 -44 5 -5 -2 -5 -14 -2 -18 6 -22 4 -17 -8 5 -13 -13 -22 -28 -15 -2 1
-23 -10 -48 -24 -25 -14 -48 -25 -52 -26 -5 -1 -33 -12 -64 -26 -31 -14 -62
-25 -69 -25 -23 0 -45 -12 -39 -21 3 -5 -4 -9 -15 -9 -10 0 -21 -5 -23 -10 -2
-6 -13 -12 -25 -14 -34 -7 -39 25 -8 47 21 16 23 22 14 34 -11 12 -8 13 14 8
21 -6 27 -3 27 8 0 9 9 19 21 22 11 4 18 9 15 12 -3 3 -17 -2 -31 -11 -14 -9
-25 -13 -25 -9 0 18 112 76 120 63 3 -5 12 -5 20 0 8 6 11 10 7 10 -4 0 -3 9
3 20 7 12 16 17 27 13 11 -4 14 -3 9 5 -4 7 -1 12 8 12 9 0 30 8 48 18 48 27
76 32 110 20 23 -8 36 -8 49 1 22 13 49 15 49 2 0 -5 -6 -12 -12 -14 -8 -4 -7
-6 3 -6 9 -1 19 8 22 19 4 14 12 19 28 18 17 -2 25 4 33 24 12 35 2 46 -22 25
-23 -21 -32 -21 -32 -2 0 8 6 15 13 15 6 0 48 14 92 31 51 20 81 27 83 20 2
-6 10 -11 18 -11 22 0 16 -27 -7 -33 -12 -3 -18 -10 -15 -16 5 -7 15 -7 32 -1
14 6 39 10 55 10 26 0 29 3 29 34 0 19 -4 38 -10 41 -5 3 -10 1 -10 -6 0 -7
-10 -9 -25 -7 -13 3 -26 0 -28 -6 -2 -6 -8 -8 -12 -4 -11 10 4 28 23 28 9 0
50 11 90 25 77 26 117 32 107 15 -3 -5 0 -7 8 -4 22 8 30 -26 10 -41 -17 -12
-16 -14 7 -19 43 -11 131 -3 125 12 -2 6 1 12 8 12 7 0 19 -6 26 -12 11 -10
13 -10 7 0 -4 6 -2 12 4 12 7 0 10 13 8 33 -2 27 -8 33 -30 35 -16 2 -28 8
-28 13 0 11 3 11 34 -1 21 -7 26 -6 26 5 0 9 9 15 23 15 12 0 45 7 72 14 60
17 67 18 81 8z m-251 -52 c3 -5 3 -11 -2 -11 -4 -1 -17 -3 -28 -4 -11 -2 -27
-6 -36 -10 -10 -3 -20 -2 -24 4 -4 7 3 11 17 11 13 0 30 5 38 10 19 12 27 12
35 0z m-2660 -80 c-7 -11 -35 -14 -35 -4 0 3 5 15 11 26 10 19 12 20 21 5 5
-10 6 -22 3 -27z m2622 14 c-3 -3 -12 -4 -19 -1 -8 3 -5 6 6 6 11 1 17 -2 13
-5z m-24 -21 c-7 -2 -21 -2 -30 0 -10 3 -4 5 12 5 17 0 24 -2 18 -5z m-523
-80 c-1 -23 -110 -68 -110 -45 0 7 76 43 108 51 1 1 2 -2 2 -6z m-2191 -62
c17 -33 19 -46 10 -102 -5 -35 -12 -86 -16 -114 -3 -27 -19 -76 -34 -108 -15
-31 -30 -71 -34 -87 -9 -42 -22 -37 -36 13 -6 23 -26 89 -45 146 -19 57 -34
106 -34 110 0 3 29 38 65 76 36 39 68 78 71 88 9 29 32 19 53 -22z m3076 -217
c-4 -29 -11 -44 -21 -44 -14 0 -65 -45 -189 -165 -60 -58 -99 -119 -91 -140
13 -35 48 -13 153 96 59 61 115 115 124 120 15 8 17 5 14 -19 -2 -15 -4 -37
-4 -49 -1 -15 -7 -23 -19 -23 -41 0 -206 -201 -275 -335 -15 -28 -15 -21 -12
115 4 181 10 210 40 210 13 0 29 10 38 23 8 12 23 31 33 42 11 11 62 71 114
134 99 119 108 122 95 35z m-2991 -36 c9 -34 8 -37 -15 -31 -12 4 -18 11 -15
20 3 8 6 19 6 24 0 18 18 8 24 -13z m1446 1 c0 -16 26 -39 35 -31 5 4 6 0 3
-8 -6 -17 16 -43 26 -32 9 8 26 -19 19 -31 -3 -5 -16 -6 -30 -2 -16 4 -23 2
-22 -7 5 -44 0 -50 -38 -44 -27 4 -32 3 -18 -4 19 -8 19 -9 1 -9 -35 -2 -89
-26 -119 -53 -16 -16 -34 -25 -40 -21 -5 3 -7 1 -4 -4 9 -14 -21 -39 -56 -47
-15 -4 -25 -10 -23 -15 3 -5 -5 -8 -17 -8 -16 0 -23 6 -25 21 -1 16 1 17 8 6
7 -12 10 -11 16 5 5 11 17 28 29 37 20 17 13 23 -24 19 -7 -2 -10 2 -6 8 3 6
21 11 38 11 18 1 50 9 72 20 22 11 54 20 70 20 19 1 25 4 15 8 -17 8 -25 32
-11 32 5 0 11 -6 14 -12 7 -21 17 -4 10 20 -3 13 -13 22 -25 22 -16 0 -18 3
-9 13 6 8 7 17 3 21 -4 4 5 5 20 1 24 -6 29 -3 42 27 8 18 15 27 15 20 1 -7 5
-11 11 -7 5 3 7 12 3 20 -3 8 0 15 6 15 6 0 11 -5 11 -11z m-1711 -199 l32
-116 -93 -127 c-186 -253 -211 -289 -255 -365 -42 -72 -45 -75 -38 -37 3 22
15 59 26 82 23 47 22 71 -2 86 -30 19 -48 -1 -71 -78 -12 -41 -25 -75 -29 -75
-3 0 -11 25 -17 56 -10 46 -9 61 3 84 8 16 20 32 26 36 6 4 31 50 56 103 25
53 50 99 57 103 7 4 37 49 66 100 29 51 69 115 88 142 19 27 41 65 49 83 13
32 51 58 64 44 4 -3 21 -58 38 -121z m311 59 c0 -5 -4 -9 -10 -9 -5 0 -10 7
-10 16 0 8 5 12 10 9 6 -3 10 -10 10 -16z m1270 11 c0 -5 -2 -10 -4 -10 -2 0
-12 -3 -22 -7 -16 -6 -17 -5 -4 10 17 19 30 22 30 7z m-1400 -192 c-6 -45 -29
-182 -51 -303 -21 -121 -52 -300 -68 -399 -27 -164 -45 -223 -58 -188 -3 7
-20 19 -40 27 -19 8 -58 38 -86 67 -58 59 -167 200 -167 216 0 29 162 272 181
272 10 0 237 302 246 328 9 25 44 74 50 69 2 -3 -1 -43 -7 -89z m1224 67 c-4
-8 -13 -15 -20 -15 -12 0 -12 3 -2 15 17 19 29 19 22 0z m-1081 -70 c-6 -16
19 -58 97 -165 27 -36 76 -121 110 -190 33 -69 81 -150 104 -180 24 -30 53
-75 65 -99 l23 -43 -61 -55 c-34 -31 -74 -77 -90 -103 -25 -40 -124 -120 -135
-109 -14 15 -39 130 -46 214 -5 55 -20 163 -34 240 -33 180 -56 385 -56 488 1
80 1 81 15 49 8 -18 12 -39 8 -47z m2907 -15 c0 -63 -2 -70 -20 -70 -10 0 -25
-10 -31 -22 -7 -13 -65 -77 -129 -143 -114 -116 -144 -164 -125 -195 14 -22
50 -10 68 23 10 19 61 76 113 128 85 85 94 91 94 67 0 -15 -6 -31 -13 -35 -28
-17 -257 -266 -257 -279 0 -8 -4 -14 -9 -14 -5 0 -12 -8 -14 -17 -9 -34 -7 67
3 169 16 154 19 173 33 159 25 -25 52 -12 81 42 36 64 106 158 160 215 22 23
41 42 43 42 2 0 3 -31 3 -70z m-1873 32 c-13 -3 -16 -9 -12 -23 4 -11 2 -19
-4 -19 -6 0 -11 -6 -11 -14 0 -9 7 -12 20 -9 14 4 19 11 15 23 -3 10 -1 21 5
25 5 3 10 -1 10 -9 0 -9 4 -16 10 -16 14 0 0 -31 -32 -68 -15 -18 -28 -37 -28
-43 0 -16 -20 1 -30 25 -8 19 -9 19 -9 -6 -1 -16 4 -28 10 -28 5 0 -1 -15 -14
-32 -14 -18 -28 -44 -31 -58 -10 -35 -19 -58 -45 -111 -12 -25 -25 -58 -30
-75 -4 -16 -13 -29 -21 -29 -7 0 -15 -6 -18 -14 -3 -8 0 -11 7 -7 16 11 14 2
-19 -69 -33 -70 -36 -85 -19 -102 8 -8 6 -20 -7 -45 -11 -18 -23 -36 -28 -40
-5 -3 -10 -52 -11 -108 -2 -55 -5 -104 -9 -107 -3 -3 -1 -12 5 -20 8 -9 8 -17
2 -25 -6 -7 -16 -30 -22 -50 -17 -53 -38 -50 -33 5 2 23 9 48 16 56 8 11 8 15
-1 18 -7 3 -13 9 -13 14 0 4 8 6 18 2 14 -5 15 -3 5 8 -15 15 -18 53 -4 44 12
-7 24 53 18 86 -3 17 -5 13 -6 -13 0 -20 -6 -40 -12 -44 -22 -13 25 203 86
394 42 134 45 143 55 137 4 -2 5 6 3 18 -2 12 13 52 35 92 31 56 43 70 60 68
19 -2 20 0 10 16 -15 24 -4 51 20 51 15 0 21 10 26 46 3 25 3 51 -1 57 -3 5
-1 7 5 3 6 -3 13 -2 17 4 4 6 12 7 18 3 8 -5 6 -9 -6 -11z m-1088 -447 c2 -82
37 -322 57 -387 46 -150 58 -182 74 -198 12 -12 15 -22 9 -31 -25 -40 3 -386
40 -496 22 -66 21 -67 -93 -68 l-80 0 -7 35 c-5 19 -13 265 -19 545 -7 305
-16 519 -22 531 -6 13 -7 46 -3 82 6 53 4 61 -13 74 -20 13 -20 17 -6 93 25
138 26 138 45 5 10 -69 18 -152 18 -185z m2920 23 c-3 -53 -36 -97 -169 -228
-53 -52 -104 -106 -113 -120 l-17 -24 0 39 c0 22 3 57 6 77 6 32 9 36 25 28
15 -8 23 -3 46 27 30 42 212 243 219 243 3 0 4 -19 3 -42z m1 -203 c0 -27 -4
-35 -18 -35 -10 0 -80 -62 -155 -137 l-137 -137 0 65 c1 48 3 60 11 47 5 -10
18 -18 27 -18 9 0 73 56 142 125 69 69 126 125 127 125 2 0 3 -16 3 -35z
m-2019 -132 c-8 -15 -10 -15 -11 -2 0 17 10 32 18 25 2 -3 -1 -13 -7 -23z
m2029 -45 c0 -16 -6 -28 -15 -30 -22 -4 -183 -153 -235 -217 -61 -74 -82 -109
-78 -135 6 -43 42 -24 106 54 55 68 87 101 190 194 l32 30 0 -67 c0 -52 -3
-65 -14 -61 -16 6 -46 -21 -46 -44 0 -8 -71 -86 -158 -171 l-158 -156 18 140
c11 77 21 159 24 183 3 27 10 42 19 42 8 0 22 12 32 28 23 35 25 38 151 164
94 96 107 105 119 90 7 -9 13 -29 13 -44z m-3145 -198 l21 0 -22 -152 c-12
-84 -25 -199 -29 -257 -9 -148 -12 -164 -37 -158 -11 3 -29 0 -40 -6 -16 -10
-23 -7 -49 21 -22 25 -29 42 -29 75 0 71 30 265 57 367 14 52 27 106 30 120
10 52 12 53 45 21 17 -17 41 -31 53 -31z m3184 -223 c1 -13 -5 -16 -21 -12
-18 4 -37 -9 -88 -57 -36 -35 -103 -96 -150 -137 -47 -41 -114 -104 -149 -140
-49 -50 -63 -60 -57 -41 4 14 15 57 25 95 14 58 19 66 25 47 6 -19 14 -23 39
-20 27 3 33 8 35 32 3 21 40 64 155 177 l152 148 17 -37 c9 -20 17 -45 17 -55z"/>
<path d="M4569 4511 c-18 -14 -22 -28 -23 -81 l-1 -63 70 -18 c120 -32 120
-32 134 -15 14 16 5 58 -27 126 -27 55 -113 84 -153 51z m87 -59 c15 -9 28
-52 16 -52 -23 0 -72 23 -72 34 0 25 31 35 56 18z"/>
<path d="M4747 4284 c-12 -12 -8 -69 7 -89 8 -11 19 -16 30 -12 13 5 16 17 14
54 -2 39 -7 49 -23 51 -12 2 -24 0 -28 -4z"/>
<path d="M4570 4267 c-24 -13 -25 -15 -23 -113 2 -88 5 -101 24 -117 37 -30
69 -18 97 33 56 106 -11 241 -98 197z m60 -108 c0 -16 -4 -29 -10 -29 -5 0
-10 16 -10 36 0 21 4 33 10 29 6 -3 10 -19 10 -36z"/>
<path d="M6288 2983 c7 -3 16 -2 19 1 4 3 -2 6 -13 5 -11 0 -14 -3 -6 -6z"/>
<path d="M6010 2910 c0 -6 7 -10 15 -10 8 0 15 2 15 4 0 2 -7 6 -15 10 -8 3
-15 1 -15 -4z"/>
<path d="M6058 2913 c7 -3 16 -2 19 1 4 3 -2 6 -13 5 -11 0 -14 -3 -6 -6z"/>
<path d="M6283 2893 c9 -2 23 -2 30 0 6 3 -1 5 -18 5 -16 0 -22 -2 -12 -5z"/>
<path d="M5895 2805 c-30 -13 -30 -13 10 -8 46 7 51 9 33 16 -8 2 -27 -1 -43
-8z"/>
<path d="M5671 2740 c-10 -5 -9 -8 2 -13 7 -3 19 -2 26 3 10 5 9 8 -2 13 -7 3
-19 2 -26 -3z"/>
<path d="M5621 2719 c-11 -19 -11 -21 4 -15 9 3 21 6 26 6 4 0 6 7 3 15 -8 21
-17 19 -33 -6z"/>
<path d="M5410 2690 c0 -5 5 -10 10 -10 6 0 10 5 10 10 0 6 -4 10 -10 10 -5 0
-10 -4 -10 -10z"/>
<path d="M5558 2693 c6 -2 18 -2 25 0 6 3 1 5 -13 5 -14 0 -19 -2 -12 -5z"/>
<path d="M5408 2613 c7 -3 16 -2 19 1 4 3 -2 6 -13 5 -11 0 -14 -3 -6 -6z"/>
<path d="M5120 2495 c0 -8 2 -15 4 -15 2 0 6 7 10 15 3 8 1 15 -4 15 -6 0 -10
-7 -10 -15z"/>
<path d="M4697 2219 c8 -8 16 -8 30 0 16 9 14 10 -11 11 -22 0 -27 -3 -19 -11z"/>
<path d="M4392 1780 c0 -19 2 -27 5 -17 2 9 2 25 0 35 -3 9 -5 1 -5 -18z"/>
<path d="M4357 1673 c-4 -3 -7 -11 -7 -17 0 -6 5 -5 12 2 6 6 9 14 7 17 -3 3
-9 2 -12 -2z"/>
<path d="M1634 6578 c-130 -87 -312 -245 -334 -291 -19 -37 -60 -101 -89 -137
-27 -33 -27 -66 1 -81 18 -10 24 -8 40 12 43 54 97 137 111 171 8 20 22 40 31
45 8 4 48 40 88 79 86 83 154 134 179 134 10 0 42 18 71 40 29 22 59 40 66 40
9 0 12 10 10 28 -2 22 -9 28 -34 30 -24 2 -54 -13 -140 -70z"/>
<path d="M2053 6528 c-6 -7 -13 -22 -17 -33 -5 -17 -15 -20 -65 -21 -50 0 -73
-7 -143 -43 -94 -48 -155 -104 -225 -204 -38 -55 -45 -72 -36 -85 24 -38 44
-26 167 101 124 128 168 159 244 172 24 4 46 12 48 19 3 7 17 11 33 8 34 -5
54 22 49 66 -3 30 -37 42 -55 20z"/>
<path d="M3202 6488 c-7 -7 -12 -20 -12 -30 0 -22 77 -108 97 -108 20 0 83
-70 139 -153 58 -85 164 -297 194 -387 25 -74 35 -90 60 -90 47 0 25 87 -74
295 -84 175 -143 262 -256 377 -97 98 -126 118 -148 96z"/>
<path d="M4510 6315 c-10 -12 -6 -20 22 -47 19 -18 46 -51 60 -73 14 -22 45
-62 70 -90 25 -27 49 -57 54 -66 5 -9 42 -53 82 -98 96 -104 173 -209 347
-466 170 -254 158 -235 146 -235 -6 0 -29 18 -51 40 -40 40 -42 41 -75 28 -46
-16 -47 -52 -4 -110 72 -99 168 -272 236 -423 43 -97 105 -266 100 -272 -4 -3
-20 17 -131 167 -23 30 -72 100 -108 155 -82 121 -88 128 -113 142 -44 25 -77
-33 -34 -59 19 -12 129 -168 129 -184 0 -4 17 -28 38 -53 21 -25 55 -71 77
-101 35 -49 130 -163 177 -214 10 -11 20 -28 23 -37 3 -10 14 -21 24 -24 21
-6 85 -95 126 -173 35 -67 26 -80 -11 -15 -57 101 -68 114 -94 111 -23 -3 -25
-7 -24 -53 1 -27 4 -75 8 -105 l8 -55 -34 75 c-42 92 -112 196 -137 203 -14 3
-19 17 -24 67 -6 67 -23 95 -51 84 -16 -6 -17 -22 -11 -208 5 -164 3 -209 -9
-246 l-15 -45 -1 90 c-1 112 -21 209 -60 292 -25 55 -33 64 -52 61 -31 -4 -34
-37 -10 -85 34 -67 56 -178 44 -221 -6 -20 -16 -70 -22 -111 -6 -43 -25 -105
-45 -149 -36 -77 -57 -93 -34 -25 17 50 17 234 0 295 -16 55 -32 72 -60 63
-28 -8 -34 -34 -15 -63 33 -51 25 -322 -11 -322 -18 0 -84 76 -101 116 -9 22
-12 48 -8 73 6 37 5 40 -21 47 -20 5 -32 1 -47 -14 -19 -18 -20 -24 -8 -71 14
-61 75 -157 121 -194 31 -24 32 -27 20 -51 -8 -13 -11 -32 -7 -41 5 -13 1 -15
-17 -10 -24 8 -112 57 -138 78 -26 20 -50 63 -44 78 3 8 -1 23 -9 34 -35 47
-72 -33 -45 -97 6 -16 30 -44 52 -63 41 -35 39 -45 -4 -22 -41 21 -64 41 -88
75 -23 32 -70 45 -72 20 -7 -76 117 -169 254 -191 30 -5 42 -2 54 13 13 14 21
16 40 9 13 -5 55 -9 93 -9 53 0 69 4 74 16 8 20 0 33 -25 42 -17 7 -15 11 17
52 20 25 50 71 67 102 23 41 39 58 58 62 33 6 85 50 104 87 18 33 40 131 50
212 3 31 11 57 16 57 6 0 28 -39 50 -86 34 -72 42 -102 51 -187 11 -117 20
-140 51 -135 35 5 68 76 74 163 4 45 10 74 16 72 18 -6 58 -128 64 -194 5 -51
9 -64 26 -69 15 -5 26 0 40 17 18 22 19 35 13 149 -3 69 -13 150 -22 179 -18
62 -76 160 -143 243 -41 50 -54 78 -90 195 -51 164 -118 322 -212 502 -38 73
-68 136 -65 139 8 7 143 -106 172 -143 13 -17 30 -47 39 -67 8 -21 21 -41 27
-45 22 -14 108 -169 142 -255 11 -27 21 -38 35 -38 48 0 16 98 -93 290 -45 78
-301 456 -568 839 -43 61 -84 126 -92 144 -7 17 -49 70 -92 116 -44 46 -88 96
-99 111 -54 72 -168 201 -185 210 -26 14 -45 13 -60 -5z m555 -2705 c3 -5 -3
-10 -15 -10 -12 0 -18 5 -15 10 3 6 10 10 15 10 5 0 12 -4 15 -10z"/>
<path d="M2567 6283 c-12 -12 -7 -345 7 -450 9 -70 12 -166 8 -310 -3 -160 -1
-237 12 -333 44 -332 107 -550 158 -550 30 0 32 26 5 94 -39 96 -95 347 -85
378 3 7 17 -34 33 -91 15 -56 43 -133 61 -171 37 -78 62 -93 111 -66 15 9 40
21 56 28 31 14 33 27 11 70 -39 75 -112 359 -140 538 -14 94 -21 476 -8 489 3
3 10 -2 15 -12 20 -35 69 -14 69 30 0 13 2 23 5 23 9 0 80 -82 109 -127 26
-39 33 -44 56 -39 26 5 28 2 38 -47 27 -123 42 -227 45 -291 l2 -69 -49 -16
c-58 -19 -78 -43 -55 -66 12 -13 21 -14 43 -5 47 17 76 13 77 -12 7 -163 19
-283 32 -328 l15 -54 -43 -48 c-73 -81 -106 -171 -68 -185 12 -5 34 14 81 65
35 40 67 72 70 72 4 0 7 -51 7 -112 0 -97 3 -119 22 -154 28 -52 74 -99 121
-123 29 -15 36 -25 37 -47 0 -24 5 -30 29 -32 33 -4 161 52 244 106 29 19 54
33 57 31 2 -3 -6 -57 -19 -120 -25 -123 -86 -314 -143 -447 -19 -45 -32 -89
-29 -97 8 -23 47 -19 53 6 5 16 11 19 34 14 26 -6 32 -1 81 69 29 42 68 102
86 134 l32 57 -6 -45 c-4 -25 -11 -55 -15 -68 -5 -13 -9 -39 -9 -57 0 -45 -39
-132 -79 -178 -38 -42 -38 -73 -1 -70 100 6 289 27 308 34 17 6 22 16 20 32
-3 21 -6 22 -120 20 l-118 -1 14 26 c57 110 86 293 86 538 0 80 -3 106 -16
118 -20 21 -27 20 -51 -6 -24 -28 -43 -99 -43 -166 0 -46 -33 -161 -60 -213
-27 -49 -82 -130 -86 -126 -2 2 7 29 21 61 58 130 113 359 135 561 8 75 20
126 36 160 33 69 66 206 62 257 -3 41 -5 44 -45 58 -39 13 -43 18 -49 57 -3
24 -4 58 -1 75 2 18 1 42 -4 53 -5 11 -18 85 -29 165 -11 80 -23 157 -26 171
-4 23 -65 99 -79 99 -8 0 -6 -86 3 -94 6 -6 32 -148 28 -152 0 -1 -41 5 -91
14 -78 13 -96 20 -135 52 -25 20 -51 40 -57 44 -21 12 -52 -12 -61 -47 -10
-37 -22 -39 -39 -7 -6 12 -16 26 -22 29 -11 7 -46 241 -55 369 -6 91 -17 122
-45 122 -38 0 -45 -24 -32 -113 34 -234 59 -442 55 -449 -3 -4 -11 -8 -18 -8
-9 0 -16 19 -20 53 -14 107 -38 244 -57 312 -10 39 -23 94 -29 124 -9 47 -20
79 -76 209 -10 24 -20 32 -38 32 -41 0 -50 -31 -27 -87 57 -143 63 -172 18
-104 -61 92 -108 116 -127 66 -10 -25 -43 -34 -55 -15 -10 16 -34 12 -66 -11
l-29 -20 0 -157 c0 -86 5 -209 10 -273 15 -184 78 -484 127 -606 22 -54 24
-67 12 -74 -27 -17 -37 -8 -62 59 -46 125 -86 306 -107 488 -11 98 -25 208
-30 244 -35 227 -40 280 -40 442 0 97 -3 183 -6 192 -6 16 -45 22 -57 9z
m1003 -969 c30 -24 82 -65 115 -91 82 -63 85 -68 85 -139 l0 -62 -62 -4 c-99
-7 -101 -6 -146 90 -58 123 -82 188 -82 222 0 42 24 38 90 -16z m-159 8 c12
-31 -5 -28 -20 4 -9 20 -9 25 0 22 7 -2 16 -14 20 -26z m-147 -99 c9 -112 1
-243 -14 -243 -13 0 -19 39 -26 187 -7 144 -3 178 19 171 8 -3 15 -42 21 -115z
m454 96 c12 -5 22 -13 22 -18 0 -5 3 -16 6 -25 10 -27 -12 -18 -57 24 -45 42
-41 45 29 19z m-283 -72 c8 -20 13 -37 10 -37 -6 0 -35 64 -35 76 0 13 9 -1
25 -39z m-85 15 c0 -10 109 -201 132 -231 10 -14 15 -28 11 -31 -4 -4 -43 -10
-85 -14 l-78 -6 0 145 c0 90 4 145 10 145 6 0 10 -4 10 -8z m414 -330 c2 -4 7
-37 11 -72 l6 -65 -34 65 c-19 36 -32 68 -30 73 6 9 40 9 47 -1z m-113 -354
c22 -6 39 -14 39 -18 0 -18 -83 -83 -128 -100 -83 -32 -124 -25 -115 20 8 44
47 82 99 96 62 16 60 16 105 2z"/>
<path d="M1750 6053 c-46 -104 -51 -163 -12 -163 26 0 47 25 77 94 34 78 31
110 -12 114 -29 3 -33 -1 -53 -45z"/>
<path d="M1548 5968 c-20 -7 -32 -23 -47 -61 -27 -74 -43 -136 -36 -146 3 -5
-4 -38 -14 -73 -71 -234 -116 -644 -108 -994 4 -197 8 -246 31 -349 63 -290
86 -385 100 -413 l15 -30 -32 -6 c-18 -3 -42 -13 -53 -21 -10 -8 -36 -26 -56
-39 l-37 -25 -21 57 c-16 41 -24 96 -31 200 -10 165 -25 210 -71 219 -16 3
-33 14 -38 24 -16 29 -12 149 20 521 38 441 56 564 109 723 27 80 27 112 -1
121 -30 9 -41 -9 -71 -119 -42 -151 -65 -293 -86 -519 -11 -117 -25 -267 -31
-333 -17 -182 -25 -658 -12 -692 6 -15 14 -59 17 -98 6 -64 5 -69 -9 -55 -9 9
-22 36 -29 60 -11 37 -17 45 -37 45 -31 0 -50 -35 -50 -95 -1 -88 -17 -73 -29
27 -7 54 -17 127 -21 163 -12 90 -12 392 0 459 5 31 17 121 25 201 9 80 18
166 21 192 5 44 4 48 -20 60 -39 17 -72 -12 -123 -108 -44 -82 -103 -249 -103
-294 0 -14 -5 -32 -11 -40 -7 -11 -9 -4 -4 25 3 22 12 94 20 160 17 126 50
279 90 405 13 41 40 129 60 195 20 66 70 191 111 277 41 86 88 189 104 229 16
39 38 78 49 86 44 30 15 77 -33 55 -27 -12 -140 -216 -155 -278 -5 -21 -25
-73 -44 -114 -43 -91 -96 -237 -127 -345 -13 -44 -31 -107 -42 -140 -57 -178
-92 -428 -92 -655 0 -252 36 -462 83 -486 13 -7 28 -17 34 -23 6 -6 17 -11 24
-11 24 0 25 29 4 73 -51 105 -64 285 -35 458 16 90 83 318 104 349 10 15 5
-115 -6 -168 -2 -13 -5 -139 -5 -281 0 -186 4 -282 15 -342 8 -46 22 -130 31
-187 21 -134 29 -156 64 -169 48 -18 59 -3 60 83 1 88 5 98 31 81 15 -9 24 -9
39 0 14 9 21 8 33 -3 8 -8 21 -12 30 -9 13 5 15 28 12 153 l-3 147 17 -85 c24
-112 68 -225 101 -256 14 -13 38 -24 53 -24 25 0 58 22 58 39 0 5 30 24 66 42
54 28 70 41 86 76 l20 42 -21 30 c-32 44 -27 58 20 64 51 7 74 27 64 57 -6 20
-12 22 -49 17 -23 -3 -49 -9 -58 -12 -19 -7 -14 -20 -66 205 -55 235 -65 448
-37 760 34 376 60 517 147 778 35 105 39 125 27 136 -10 10 -21 11 -41 4z"/>
<path d="M3852 5931 c-28 -17 -16 -75 32 -149 25 -40 73 -127 107 -194 113
-226 158 -298 183 -298 14 0 26 7 28 18 3 10 -31 84 -78 172 -46 85 -84 164
-84 175 0 11 -12 38 -26 59 -14 21 -41 70 -59 109 -31 67 -66 117 -83 117 -4
0 -13 -4 -20 -9z"/>
<path d="M2122 5302 c-7 -5 -18 -33 -24 -64 -10 -47 -8 -81 11 -224 42 -303
98 -476 149 -457 28 11 31 25 12 62 -31 63 -42 113 -49 246 -6 98 -13 139 -27
165 -15 28 -19 58 -20 146 -1 61 -4 117 -8 123 -8 13 -26 14 -44 3z"/>
<path d="M2605 4638 c-27 -11 -97 -34 -155 -52 -58 -18 -115 -38 -127 -45 -27
-14 -30 -39 -7 -48 29 -11 217 38 307 80 73 34 87 44 85 61 -4 28 -40 30 -103
4z"/>
<path d="M2767 3984 c-13 -13 -7 -42 10 -48 21 -8 36 6 31 30 -3 19 -29 30
-41 18z"/>
<path d="M3003 3667 c-32 -15 -43 -27 -43 -44 0 -19 5 -23 28 -23 37 0 98 50
89 73 -8 22 -22 21 -74 -6z"/>
<path d="M4240 2483 c-12 -26 -30 -66 -42 -89 -24 -45 -19 -74 12 -74 14 0 32
18 56 55 30 47 35 63 32 103 -2 35 -7 48 -21 50 -12 3 -23 -10 -37 -45z"/>
<path d="M1200 2300 c-39 -39 -20 -141 65 -340 30 -69 64 -152 76 -185 12 -33
44 -100 71 -149 26 -49 48 -95 48 -102 0 -20 -54 0 -113 42 -29 21 -88 55
-131 77 -44 21 -98 51 -120 66 -42 29 -86 54 -213 123 -91 49 -161 60 -192 29
-21 -21 -27 -63 -15 -96 13 -33 235 -210 352 -280 9 -5 39 -24 67 -41 27 -16
96 -56 153 -88 90 -52 119 -74 95 -77 -53 -5 -65 -21 -87 -110 -20 -82 -20
-84 0 -104 15 -15 14 -21 -11 -77 -27 -61 -27 -62 -10 -95 14 -24 31 -38 66
-50 31 -11 50 -24 53 -38 7 -27 117 -98 191 -124 33 -12 103 -28 155 -36 85
-13 98 -18 123 -46 28 -31 29 -33 20 -103 -15 -131 -11 -211 14 -243 11 -15
27 -27 34 -25 7 2 18 -3 24 -10 16 -20 93 -78 103 -78 5 0 15 6 21 14 8 10 4
23 -22 56 -66 87 -63 78 -31 102 25 20 61 54 101 99 7 8 21 22 32 32 24 23 50
117 53 187 1 35 8 62 19 75 18 22 45 196 52 347 6 107 -4 121 -59 92 -20 -10
-41 -29 -47 -41 -6 -13 -13 -23 -16 -23 -20 1 -42 34 -53 78 -7 35 -19 57 -35
67 -13 9 -23 20 -23 26 0 6 -14 41 -32 78 -24 51 -59 95 -157 196 -126 130
-131 137 -301 415 -18 30 -54 96 -80 145 -96 185 -136 235 -187 235 -20 0 -41
-8 -53 -20z m112 -110 c21 -36 38 -72 38 -80 0 -16 22 -54 189 -320 101 -162
130 -199 229 -300 130 -131 147 -156 203 -306 23 -60 47 -112 54 -117 8 -4 16
-21 20 -37 4 -17 15 -34 24 -40 10 -5 26 -30 36 -55 11 -31 25 -49 42 -56 17
-6 23 -15 19 -27 -3 -9 -8 -43 -12 -75 -4 -35 -12 -61 -21 -66 -11 -5 -18 -36
-24 -96 -5 -49 -10 -89 -12 -89 -25 -8 -43 -29 -45 -52 -3 -26 -42 -68 -42
-46 0 5 -11 22 -24 37 -13 15 -29 37 -34 49 -20 41 -56 121 -67 151 -11 29
-13 30 -86 31 -141 4 -308 55 -360 110 -29 31 -23 32 122 36 143 4 162 15 157
88 -3 39 0 45 17 47 13 2 27 -8 40 -29 11 -18 35 -41 54 -52 33 -19 34 -19 47
-1 12 17 11 22 -10 44 -30 33 -56 84 -56 111 0 13 9 24 26 30 19 7 25 16 22
33 -3 19 -9 22 -48 23 -74 2 -121 14 -164 43 -23 15 -62 35 -88 45 -51 19 -98
51 -98 67 0 13 138 7 272 -11 114 -15 148 -10 148 24 0 22 -4 24 -86 30 -47 4
-118 16 -159 26 -118 30 -190 36 -219 16 -14 -9 -31 -16 -38 -16 -17 0 -265
143 -388 224 -112 74 -253 194 -258 220 -3 16 1 18 31 12 39 -7 179 -81 296
-156 42 -27 97 -58 122 -69 24 -11 81 -45 127 -75 46 -31 93 -56 105 -56 12 0
32 -3 44 -6 14 -4 28 1 42 15 30 30 28 88 -5 136 -39 58 -68 118 -134 280 -94
227 -109 269 -116 325 -6 47 -5 52 12 48 10 -2 35 -32 56 -68z m124 -1011 c62
-42 152 -77 218 -85 35 -4 62 -14 72 -25 14 -15 14 -19 3 -23 -62 -21 -275 -1
-365 34 -40 15 -49 22 -46 41 1 12 12 29 23 37 13 9 19 21 16 33 -8 29 27 24
79 -12z m744 -189 c0 -48 -15 -59 -28 -22 -5 15 -13 34 -17 44 -4 11 -1 18 12
20 28 7 33 0 33 -42z m-700 4 c52 -9 110 -18 128 -21 23 -3 36 -12 44 -29 20
-42 3 -47 -163 -45 -130 2 -176 8 -198 27 -2 2 7 24 19 49 20 42 25 46 49 41
14 -4 69 -14 121 -22z m448 -562 c2 -7 -2 -10 -12 -6 -9 3 -16 11 -16 16 0 13
23 5 28 -10z m39 -38 c-3 -3 -12 -4 -19 -1 -8 3 -5 6 6 6 11 1 17 -2 13 -5z"/>
<path d="M5040 1910 c0 -11 16 -45 37 -77 20 -31 51 -89 68 -127 36 -79 95
-255 95 -285 0 -30 28 -53 50 -41 10 6 21 10 23 10 2 0 7 -37 10 -82 5 -72 3
-83 -14 -97 -18 -16 -18 -18 8 -101 14 -47 32 -92 39 -100 7 -8 22 -83 34
-167 11 -83 25 -164 30 -180 17 -50 31 -224 36 -423 5 -232 6 -240 39 -240
l25 0 0 178 c0 183 -18 395 -45 517 -13 59 -47 308 -86 630 -5 44 -7 103 -4
130 4 32 1 68 -9 100 -9 28 -16 69 -16 92 0 69 -43 235 -65 253 -8 6 -17 5
-28 -3 -16 -11 -16 -21 3 -137 11 -69 27 -161 35 -205 9 -51 12 -91 6 -110 -8
-29 -8 -29 -19 20 -6 28 -27 95 -47 150 -20 55 -40 116 -44 135 -21 95 -161
234 -161 160z"/>
<path d="M4842 1514 c-20 -14 -22 -23 -22 -122 0 -102 -2 -111 -35 -181 -19
-40 -49 -92 -66 -116 -17 -24 -34 -58 -38 -77 -6 -29 -11 -33 -38 -33 -18 -1
-33 -3 -35 -5 -2 -3 -14 -36 -27 -75 -45 -137 -75 -210 -93 -231 -25 -28 -24
-71 2 -79 30 -10 46 8 75 84 14 37 37 77 50 89 13 12 41 54 61 94 20 40 56
105 79 143 23 39 64 123 90 188 46 115 47 120 41 192 -5 52 -3 80 6 94 9 15 9
23 -1 35 -17 20 -21 20 -49 0z"/>
<path d="M2273 1113 c-42 -16 37 -154 157 -274 108 -108 131 -123 189 -124 43
0 46 -2 44 -25 -1 -14 -4 -77 -8 -140 -4 -63 -13 -153 -20 -200 -14 -85 -20
-230 -14 -305 3 -32 8 -41 25 -43 39 -6 72 122 39 154 -16 16 -16 25 11 184 8
47 14 110 14 141 0 31 6 69 14 85 8 16 19 74 25 129 6 55 20 146 31 202 12 57
20 115 18 129 -4 34 -31 53 -55 38 -21 -13 -28 -37 -42 -154 -17 -135 -15
-130 -69 -130 -41 1 -55 7 -108 49 -67 54 -159 169 -167 210 -7 32 -44 81 -60
80 -7 0 -18 -3 -24 -6z"/>
<path d="M6432 732 c-7 -5 -74 -69 -150 -143 -258 -252 -372 -359 -381 -359
-5 0 -26 -23 -46 -52 -21 -29 -60 -72 -86 -96 -27 -25 -49 -48 -49 -53 0 -5
20 -9 45 -9 l45 0 212 213 c117 116 273 270 346 340 136 130 154 159 102 165
-14 1 -31 -2 -38 -6z"/>
<path d="M6442 523 c-32 -32 -71 -76 -87 -98 -46 -62 -186 -221 -277 -315
l-83 -85 48 -3 c53 -3 50 -6 185 147 51 58 74 84 149 171 12 14 38 45 58 69
20 24 47 52 60 63 36 28 58 73 42 85 -33 26 -39 24 -95 -34z"/>
<path d="M6497 345 c-34 -37 -69 -76 -77 -87 -8 -11 -39 -45 -68 -76 -62 -67
-72 -90 -46 -109 30 -22 8 -41 203 174 77 85 102 118 99 135 -2 15 -11 24 -26
26 -17 3 -38 -13 -85 -63z"/>
<path d="M4382 388 c-6 -6 -12 -18 -12 -25 0 -26 -63 -208 -76 -218 -11 -9
-64 -115 -64 -130 0 -3 21 -5 48 -3 l47 3 52 155 c54 158 63 222 33 228 -9 1
-21 -3 -28 -10z"/>
<path d="M6605 302 c-82 -59 -195 -203 -195 -248 0 -20 17 -34 41 -34 4 0 25
26 45 58 43 68 103 133 162 174 32 22 42 35 40 51 -5 34 -46 33 -93 -1z"/>
<path d="M2000 105 c-13 -16 -7 -60 12 -82 28 -34 73 1 61 48 -12 49 -47 65
-73 34z"/>
</g>
</svg>
